<svg width="231" height="83" viewBox="0 0 231 83" fill="none" xmlns="http://www.w3.org/2000/svg">
<rect x="0.427734" y="0.668945" width="230" height="82" rx="10" fill="url(#paint0_linear)"/>
<path d="M106.477 45.1592V54.6689H102.029V29.0752H111.82C114.68 29.0752 116.947 29.8193 118.623 31.3076C120.311 32.7959 121.154 34.7646 121.154 37.2139C121.154 39.7217 120.328 41.6729 118.676 43.0674C117.035 44.4619 114.732 45.1592 111.768 45.1592H106.477ZM106.477 41.5908H111.82C113.402 41.5908 114.609 41.2217 115.441 40.4834C116.273 39.7334 116.689 38.6553 116.689 37.249C116.689 35.8662 116.268 34.7646 115.424 33.9443C114.58 33.1123 113.42 32.6846 111.943 32.6611H106.477V41.5908ZM134.461 44.8076H129.504V54.6689H125.057V29.0752H134.057C137.01 29.0752 139.289 29.7373 140.895 31.0615C142.5 32.3857 143.303 34.3018 143.303 36.8096C143.303 38.5205 142.887 39.9561 142.055 41.1162C141.234 42.2646 140.086 43.1494 138.609 43.7705L144.357 54.4404V54.6689H139.594L134.461 44.8076ZM129.504 41.2393H134.074C135.574 41.2393 136.746 40.8643 137.59 40.1143C138.434 39.3525 138.855 38.3154 138.855 37.0029C138.855 35.6318 138.463 34.5713 137.678 33.8213C136.904 33.0713 135.744 32.6846 134.197 32.6611H129.504V41.2393ZM162.48 43.2432H151.969V51.1182H164.256V54.6689H147.521V29.0752H164.133V32.6611H151.969V39.7275H162.48V43.2432ZM176.895 49.0967L183.398 29.0752H188.285L179.074 54.6689H174.768L165.592 29.0752H170.461L176.895 49.0967Z" fill="white"/>
<path d="M42.301 39.9012C41.3247 40.8775 41.3247 42.4604 42.301 43.4367L58.2109 59.3466C59.1872 60.3229 60.7701 60.3229 61.7464 59.3466C62.7227 58.3703 62.7227 56.7874 61.7464 55.8111L47.6043 41.6689L61.7464 27.5268C62.7227 26.5505 62.7227 24.9676 61.7464 23.9913C60.7701 23.015 59.1872 23.015 58.2109 23.9913L42.301 39.9012ZM80.3845 39.1689H44.0687V44.1689H80.3845V39.1689Z" fill="white"/>
<defs>
<linearGradient id="paint0_linear" x1="14.9153" y1="8.09651" x2="60.9311" y2="238.126" gradientUnits="userSpaceOnUse">
<stop stop-color="#3A7BD5"/>
</linearGradient>
</defs>
</svg>
